{"title":"Fifth.Element.(1997).(Dutchsubs-EXT).(Xvid.ac3).[H33T]-2lions+Wa","uid":4991292,"size":1467531746,"categoryP":"video","categoryS":"movies","magnet":"?xt=urn:btih:95da5689cc74ee9d342ef6cf8cf1bda6e15272a8&amp;dn=Fifth.Element.%281997%29.%28Dutchsubs-EXT%29.%28Xvid.ac3%29.%5BH33T%5D-2lions%2BWa&amp;tr=udp%3A%2F%2Ftracker.openbittorrent.com%3A80&amp;tr=udp%3A%2F%2Fopen.demonii.com%3A1337&amp;tr=udp%3A%2F%2Ftracker.coppersurfer.tk%3A6969&amp;tr=udp%3A%2F%2Fexodus.desync.com%3A6969","seeders":0,"leechers":1,"uploader":"bitpirate","files":-1,"time":1247058647,"description":"WaRlOrD presents: The fifth element\n-----------------------------------\n\nFrankrijk\nActie / Science-Fiction\n126 minuten\n\ngeregisseerd door Luc Besson\nmet Bruce Willis, Gary Oldman en Milla Jovovich\n\nIn de 23e eeuw wordt, zoals elke 5000 jaar, het leven op de aarde bedreigd. De enige die het onheil kan voorkomen is een vrouw, het Vijfde Element. Zij wordt geholpen door de taxichauffeur Corben Dallas. Samen moeten ze op zoek naar de andere vier elementen, en hierbij verschillende mensen en aliens zien te omzeilen.\n &lt;a href=&quot;\nhttp://www.moviemeter.nl/film/304&quot; rel=&quot;nofollow&quot; target=&quot;_NEW&quot;&gt;\nhttp://www.moviemeter.nl/film/304&lt;/a&gt;\n\n----------------------------------\n\nThere will come a time in the Universe where a great evil will threaten all life in the Universe. The Ultimate weapon against evil is called &quot;The Fifth Element&quot;. When a Professor discovered it in the 1910's, he fund it very astonishing. However, a group of mechanical beings known as the Monascheiwans came to Earth to take the fifth element to ensure its existence. Then in the distant future of the 2200's, the Earth is polluted and weird. In the mega metropolitan city of New York, a former space soldier named Korban Dallas is now a taxi driver. Meanwhile as the Monasceiwans were returning to Earth to fend of the risen evil, were shot down in space by a ruthless race of beings known as Mangalores. As the humans dug up what is left of the Monascheiwans' ship, they created the perfect being named &quot;Leeloo&quot;, who dropped in on Korban Dallas. Dallas saves her and finds a man, a priest named Vito Corniellious, who is trying to find the Elemental Stones needed to power the weapon against evil, however he is competing with a corrupted businessman named Zorg.\n &lt;a href=&quot;\nhttp://www.imdb.com/title/tt0119116/&quot; rel=&quot;nofollow&quot; target=&quot;_NEW&quot;&gt;\nhttp://www.imdb.com/title/tt0119116/&lt;/a&gt;\n\nFormat                           : AVI\nFormat/Info                      : Audio Video Interleave\nFile size                        : 700 MiB\nDuration                         : 1h 1mn\nOverall bit rate                 : 1 591 Kbps\nWriting application              : VirtualDubMod 1.5.4.1 (build 2178/release)\nWriting library                  : VirtualDubMod build 2178/release\n\nVideo\nID                               : 0\nFormat                           : MPEG-4 Visual\nFormat profile                   : Advanced Simple@L5\nFormat settings, BVOP            : Yes\nFormat settings, QPel            : No\nFormat settings, GMC             : No warppoints\nFormat settings, Matrix          : Custom\nCodec ID                         : XVID\nCodec ID/Hint                    : XviD\nDuration                         : 1h 1mn\nBit rate                         : 1 136 Kbps\nWidth                            : 720 pixels\nHeight                           : 304 pixels\nDisplay aspect ratio             : 2.35\nFrame rate                       : 25.000 fps\nResolution                       : 24 bits\nColorimetry                      : 4:2:0\nScan type                        : Progressive\nBits/(Pixel*Frame)               : 0.208\nStream size                      : 500 MiB (71%)\nWriting library                  : XviD 1.0.0 (UTC 2004-05-09)\n\nAudio\nID                               : 1\nFormat                           : AC-3\nFormat/Info                      : Audio Coding 3\nCodec ID                         : 2000\nDuration                         : 1h 1mn\nBit rate mode                    : Constant\nBit rate                         : 448 Kbps\nChannel(s)                       : 6 channels\nChannel positions                : Front: L C R, Surround: L R, LFE\nSampling rate                    : 48.0 KHz\nStream size                      : 197 MiB (28%)\nAlignment                        : Split accross interleaves\nInterleave, duration             : 96 ms (2.40 video frames)\nInterleave, preload duration     : 96 ms\nLanguage                         : English / English\n\n******************************************\n\nBrought to you by\n\nWaRlOrD\nAND\n2Lions Team\n\nmeer zien??\nKom dan eens kijken op ons forum &lt;a href=&quot;\nhttp://www.2lions.ons-forum.nl&quot; rel=&quot;nofollow&quot; target=&quot;_NEW&quot;&gt;\nhttp://www.2lions.ons-forum.nl&lt;/a&gt;\n\n******************************************\nYou need this reseed? send me a pm @ piratebay forum","torrent":{"xt":"urn:btih:95da5689cc74ee9d342ef6cf8cf1bda6e15272a8","amp;dn":"Fifth.Element.%281997%29.%28Dutchsubs-EXT%29.%28Xvid.ac3%29.%5BH33T%5D-2lions%2BWa","amp;tr":["udp%3A%2F%2Ftracker.openbittorrent.com%3A80","udp%3A%2F%2Fopen.demonii.com%3A1337","udp%3A%2F%2Ftracker.coppersurfer.tk%3A6969","udp%3A%2F%2Fexodus.desync.com%3A6969"],"infoHash":"95da5689cc74ee9d342ef6cf8cf1bda6e15272a8","infoHashBuffer":{"type":"Buffer","data":[149,218,86,137,204,116,238,157,52,46,246,207,140,241,189,166,225,82,114,168]},"announce":[],"urlList":[]}}